<svg width="40" height="45" viewBox="0 0 40 45" fill="none" xmlns="http://www.w3.org/2000/svg">
<path d="M20 44.0454C31.0457 44.0454 40 35.0911 40 24.0454C40 12.9997 31.0457 4.04541 20 4.04541C8.9543 4.04541 0 12.9997 0 24.0454C0 35.0911 8.9543 44.0454 20 44.0454Z" fill="url(#paint0_radial_7_16530)"/>
<g style="mix-blend-mode:screen">
<path d="M19.9099 5.51819C9.65534 5.51819 1.33716 13.8364 1.33716 24.0909C1.33716 28.3546 2.77352 32.2818 5.1917 35.4091C3.61898 32.6818 2.72807 29.5273 2.72807 26.1546C2.72807 15.9 11.0462 7.58183 21.3008 7.58183C27.3008 7.58183 32.6281 10.4273 36.019 14.8364C32.8099 9.27273 26.8008 5.51819 19.9099 5.51819Z" fill="url(#paint1_radial_7_16530)"/>
</g>
<path d="M19.9999 34.4365C16.7363 34.4365 13.6545 33.1728 11.3272 30.8819C10.9999 30.5547 10.9908 30.0274 11.3181 29.7001C11.6454 29.3728 12.1727 29.3638 12.4999 29.691C14.509 31.6728 17.1817 32.7638 19.9999 32.7638C22.8272 32.7638 25.4908 31.6728 27.4999 29.691C27.8272 29.3638 28.3545 29.3728 28.6818 29.7001C29.009 30.0274 28.9999 30.5547 28.6727 30.8819C26.3545 33.1728 23.2727 34.4365 19.9999 34.4365Z" fill="url(#paint2_radial_7_16530)"/>
<path d="M15.5636 21.9544C15.3545 21.9544 15.1363 21.8726 14.9727 21.709C14.2727 21.009 13.4636 20.6453 12.6454 20.6453C11.8181 20.6453 11.0181 21.009 10.3181 21.709C9.99087 22.0362 9.4636 22.0362 9.13632 21.709C8.80905 21.3817 8.80905 20.8544 9.13632 20.5271C10.1545 19.5181 11.3636 18.9817 12.6454 18.9817C13.9181 18.9817 15.1272 19.5181 16.1545 20.5271C16.4818 20.8544 16.4818 21.3817 16.1545 21.709C15.9909 21.8726 15.7727 21.9544 15.5636 21.9544Z" fill="url(#paint3_linear_7_16530)"/>
<path d="M24.4462 21.9544C24.228 21.9544 24.019 21.8726 23.8553 21.709C23.528 21.3817 23.528 20.8544 23.8553 20.5271C24.8735 19.5181 26.0826 18.9817 27.3644 18.9817C28.6371 18.9817 29.8462 19.5181 30.8735 20.5271C31.2008 20.8544 31.2008 21.3817 30.8735 21.709C30.5462 22.0362 30.019 22.0362 29.6917 21.709C28.9917 21.009 28.1826 20.6453 27.3644 20.6453C26.5371 20.6453 25.7371 21.009 25.0371 21.709C24.8735 21.8726 24.6644 21.9544 24.4462 21.9544Z" fill="url(#paint4_linear_7_16530)"/>
<path d="M19.9979 0C11.656 0 2.66724 1.24972 2.66724 4.00091C2.66724 6.7521 11.656 8.00182 19.9979 8.00182C28.3399 8.00182 37.3418 6.7521 37.3418 4.00091C37.3418 1.24972 28.3531 0 19.9979 0ZM31.0721 5.45742C28.1287 6.03283 24.1953 6.3565 19.9979 6.3565C15.8005 6.3565 11.8671 6.04182 8.9237 5.45742C6.01986 4.88201 5.08271 4.22568 5.08271 4.00091C5.08271 3.77614 6.01986 3.11981 8.9369 2.5444C11.8803 1.96899 15.8137 1.64532 20.0111 1.64532C24.2085 1.64532 28.1419 1.96 31.0853 2.5444C33.9892 3.11981 34.9395 3.76715 34.9395 4.00091C34.9263 4.22568 33.9892 4.88201 31.0721 5.45742Z" fill="url(#paint5_radial_7_16530)"/>
<defs>
<radialGradient id="paint0_radial_7_16530" cx="0" cy="0" r="1" gradientUnits="userSpaceOnUse" gradientTransform="translate(15.2637 13.588) scale(31.3448)">
<stop stop-color="#F7E135"/>
<stop offset="0.5" stop-color="#FCBC27"/>
<stop offset="1" stop-color="#FF7E2C"/>
</radialGradient>
<radialGradient id="paint1_radial_7_16530" cx="0" cy="0" r="1" gradientUnits="userSpaceOnUse" gradientTransform="translate(2.05408 -4.36295) scale(34.7264)">
<stop stop-color="white"/>
<stop offset="1"/>
</radialGradient>
<radialGradient id="paint2_radial_7_16530" cx="0" cy="0" r="1" gradientUnits="userSpaceOnUse" gradientTransform="translate(20.0042 31.9478) scale(6.54982 6.54982)">
<stop stop-color="#372396"/>
<stop offset="1"/>
</radialGradient>
<linearGradient id="paint3_linear_7_16530" x1="8.89361" y1="20.4692" x2="16.3953" y2="20.4692" gradientUnits="userSpaceOnUse">
<stop stop-color="#372396"/>
<stop offset="1"/>
</linearGradient>
<linearGradient id="paint4_linear_7_16530" x1="23.614" y1="20.4692" x2="31.1157" y2="20.4692" gradientUnits="userSpaceOnUse">
<stop/>
<stop offset="1" stop-color="#372396"/>
</linearGradient>
<radialGradient id="paint5_radial_7_16530" cx="0" cy="0" r="1" gradientUnits="userSpaceOnUse" gradientTransform="translate(20.0647 8.03935) scale(12.1044 8.24498)">
<stop stop-color="#09F5CF"/>
<stop offset="1" stop-color="#00D9FF"/>
</radialGradient>
</defs>
</svg>
