<svg width="123" height="24" viewBox="0 0 123 24" fill="none" xmlns="http://www.w3.org/2000/svg">
<g clip-path="url(#clip0_7_16546)">
<path d="M14.268 4.5099L7.134 9.01981L14.268 13.5297L7.134 18.0396L0 13.5053L7.134 8.99543L0 4.5099L7.134 0L14.268 4.5099ZM7.0971 19.4901L14.2311 14.9802L21.3651 19.4901L14.2311 24L7.0971 19.4901ZM14.268 13.5053L21.402 8.99543L14.268 4.5099L21.3651 0L28.4991 4.5099L21.3651 9.01981L28.4991 13.5297L21.3651 18.0396L14.268 13.5053Z" fill="#B7BEC9"/>
<path d="M34.0955 4.50994H39.8642C43.5419 4.50994 46.58 6.61863 46.58 11.4333V12.4449C46.58 17.2961 43.7387 19.478 39.9749 19.478H34.0955V4.50994ZM37.3181 7.22808V16.7476H39.7904C41.8814 16.7476 43.2836 15.3947 43.2836 12.384V11.5917C43.2836 8.58105 41.8076 7.22808 39.6797 7.22808H37.3181ZM48.2897 7.37434H50.8727L51.2908 10.19C51.7829 8.27632 53.0375 7.25245 55.313 7.25245H56.1124V10.4825H54.784C52.1641 10.4825 51.5245 11.3845 51.5245 13.9442V19.5145H48.3389V7.37434H48.2897ZM56.752 13.6882V13.3469C56.752 9.28801 59.3719 7.06962 62.9389 7.06962C66.5797 7.06962 69.1258 9.28801 69.1258 13.3469V13.6882C69.1258 17.674 66.6535 19.8192 62.9389 19.8192C58.9906 19.7827 56.752 17.6862 56.752 13.6882ZM65.8663 13.6516V13.3469C65.8663 11.092 64.7224 9.739 62.902 9.739C61.1185 9.739 59.9377 10.9823 59.9377 13.3469V13.6516C59.9377 15.8335 61.0816 17.0767 62.902 17.0767C64.7224 17.0402 65.8663 15.8335 65.8663 13.6516ZM70.7986 7.37434H73.4554L73.7629 9.66586C74.4025 8.13006 75.7678 7.06962 77.785 7.06962C80.8969 7.06962 82.951 9.288 82.951 13.3957V13.737C82.951 17.7227 80.6755 19.8314 77.785 19.8314C75.8539 19.8314 74.5255 18.966 73.8736 17.5765V23.7075H70.7617L70.7986 7.37434ZM79.7161 13.6516V13.3835C79.7161 10.9701 78.4615 9.77556 76.7887 9.77556C75.0052 9.77556 73.8244 11.1285 73.8244 13.3835V13.6151C73.8244 15.7603 74.9683 17.1133 76.7518 17.1133C78.5845 17.0767 79.7161 15.9188 79.7161 13.6516ZM87.6619 17.2718L87.3913 19.4901H84.6607V3.31543H87.7726V9.51959C88.4614 7.93503 89.8267 7.06962 91.7578 7.06962C94.6852 7.10619 96.85 9.10517 96.85 13.1275V13.5054C96.85 17.5277 94.7959 19.8314 91.684 19.8314C89.6299 19.7827 88.3015 18.8441 87.6619 17.2718ZM93.5782 13.5054V13.2007C93.5782 10.9823 92.3605 9.739 90.6508 9.739C88.9042 9.739 87.6865 11.1285 87.6865 13.2372V13.5054C87.6865 15.7603 88.8673 17.0767 90.6139 17.0767C92.4835 17.0767 93.5782 15.9188 93.5782 13.5054ZM98.2153 13.6882V13.3469C98.2153 9.28801 100.835 7.06962 104.402 7.06962C108.043 7.06962 110.589 9.28801 110.589 13.3469V13.6882C110.589 17.674 108.08 19.8192 104.402 19.8192C100.454 19.7827 98.2153 17.6862 98.2153 13.6882ZM107.354 13.6516V13.3469C107.354 11.092 106.21 9.739 104.39 9.739C102.606 9.739 101.426 10.9823 101.426 13.3469V13.6516C101.426 15.8335 102.57 17.0767 104.39 17.0767C106.223 17.0402 107.354 15.8335 107.354 13.6516ZM114.759 13.2007L110.466 7.37434H114.144L116.616 11.0188L119.125 7.37434H122.766L118.412 13.1641L123 19.4901H119.396L116.592 15.4678L113.861 19.4901H110.097L114.759 13.2007Z" fill="#B7BEC9"/>
</g>
<defs>
<clipPath id="clip0_7_16546">
<rect width="123" height="24" fill="white"/>
</clipPath>
</defs>
</svg>
