<svg width="80" height="80" viewBox="0 0 80 80" fill="none" xmlns="http://www.w3.org/2000/svg">
<rect width="80" height="80" rx="25" fill="#FFC059"/>
<path d="M43.2741 27.1599L48.6177 30.8396L49.1617 31.6396C49.3537 31.4156 49.6736 30.9356 49.6736 30.9356C49.6416 30.7436 49.1297 28.2158 48.9697 27.5759C47.5298 21.4004 46.2179 21.4004 40.0104 21.4004C33.7709 21.4004 32.491 21.4004 31.0511 27.5759C30.8591 28.4078 30.4112 30.7436 30.3472 30.9356C30.3472 30.9356 30.6351 31.3836 30.8591 31.6396L31.4351 30.7436L31.7231 30.7116C31.7871 30.7116 38.0586 29.8477 43.1141 27.2559L43.2741 27.1599Z" fill="#2C3E50"/>
<path d="M39.9838 50.3262C41.8077 50.3582 45.8713 46.8384 45.8713 46.8384V45.7505C43.6955 47.2544 41.8077 48.5663 39.9838 48.5663C39.9518 48.5663 39.9518 48.5663 39.9198 48.5663C38.0639 48.5663 36.1761 47.2224 33.9363 45.6545V46.7425C33.9363 46.7425 38.0639 50.3262 39.9198 50.3262C39.9518 50.3262 39.9838 50.3262 39.9838 50.3262Z" fill="#2C3E50"/>
<path d="M60.8442 54.7739C59.1483 52.534 55.3726 50.5822 47.4693 47.8944V49.3663C47.4693 53.9739 43.6616 56.3737 39.9179 56.3737C36.1742 56.3737 32.3665 53.9419 32.3665 49.3663V47.9264C24.5911 50.5822 20.8474 52.534 19.1515 54.7739C18.8955 55.1578 18.4476 55.8298 17.7756 62.7092H62.2201C61.5481 55.8298 61.1002 55.1578 60.8442 54.7739Z" fill="#2C3E50"/>
<path d="M54.7017 32.4076C54.7017 31.1917 54.3178 30.6477 53.9338 30.0717C53.5818 29.5918 53.1979 29.0158 53.1659 28.1839C52.7179 20.2485 48.7822 16.8888 40.0149 16.8888C29.6158 16.8888 27.2479 21.4004 26.864 28.1519C26.832 29.0158 26.416 29.5598 26.064 30.0397C25.6481 30.6157 25.2321 31.1597 25.2961 32.5035C25.5521 36.7272 27.024 37.7831 27.4719 38.0071C27.8559 38.1991 28.1759 38.1671 28.3359 38.0711C28.4958 37.9751 28.5598 37.8151 28.5918 37.6231C28.0159 36.8552 27.6319 35.7353 27.5039 34.4874C27.3119 32.3116 27.8239 30.6477 28.9118 30.0077C29.0718 29.2398 29.3598 27.7039 29.5198 27.032C31.1836 19.9925 33.3595 19.6726 39.9829 19.6726C46.6384 19.6726 48.8142 19.9925 50.4461 27.032C50.5741 27.5759 50.8941 29.2078 51.054 30.0077C52.142 30.6477 52.6539 32.3116 52.4619 34.5194C52.3339 35.8313 51.918 36.9512 51.31 37.7191C51.054 38.0391 50.7341 38.3271 50.3821 38.6151C48.1103 40.5029 46.6064 41.3668 42.3187 41.4948C42.0308 41.1749 41.6148 40.9509 41.1668 40.9509C40.3349 40.9509 39.631 41.6228 39.631 42.4867C39.631 43.3187 40.3029 44.0226 41.1668 44.0226C41.9028 44.0226 42.5427 43.4787 42.6707 42.7747C47.2783 42.5827 48.9742 41.4628 51.438 39.447C52.2379 38.775 52.8459 38.3271 53.4219 37.5271C54.2218 36.4392 54.4778 34.1674 54.6698 32.5035L54.7017 32.4076Z" fill="#2C3E50"/>
</svg>
